<svg width="35" height="21" viewBox="0 0 35 21" fill="none" xmlns="http://www.w3.org/2000/svg">
<path fill-rule="evenodd" clip-rule="evenodd" d="M32.3817 0.363281C30.6363 0.363282 12.1564 0.363281 1.83627 0.363281C0.963548 0.363282 0.0908203 1.17783 0.0908203 1.99237V18.2833C0.0908202 19.9124 0.963548 20.7269 2.709 20.7269C12.445 20.7269 30.6363 20.7269 32.3817 20.7269C34.1272 20.7269 34.9999 19.9124 34.9999 18.2833V2.80692C34.9999 1.17783 34.1272 0.363281 32.3817 0.363281Z" fill="#F4F4F4"/>
<path fill-rule="evenodd" clip-rule="evenodd" d="M10.9004 20.7266C20.2792 20.7266 31.0584 20.7266 32.3819 20.7266C34.1274 20.7266 35.0001 19.912 35.0001 18.2829V8.5957C35.0001 8.5957 29.7985 17.1433 10.9004 20.7266Z" fill="#D97B16"/>
<path fill-rule="evenodd" clip-rule="evenodd" d="M11.4453 10.325H11.759L12.73 11.6775H12.735V10.325H12.974V11.9702H12.6703L11.6893 10.6178H11.6843V11.9702H11.4453V10.325ZM13.4271 10.325H14.5649V10.5342H13.6662V11.0245H14.5027V11.2336H13.6662V11.7611H14.6098V11.9702H13.4271V10.325ZM15.3168 10.5342H14.7492V10.325H16.1235V10.5342H15.5559V11.9702H15.3168V10.5342ZM16.1534 10.325H16.4024L16.7908 11.6403H16.7958L17.2115 10.325H17.4854L17.9012 11.6403H17.9062L18.2946 10.325H18.5435L18.0307 11.9702H17.7792L17.351 10.6271H17.346L16.9202 11.9702H16.6688L16.1534 10.325ZM19.5818 12.0121C19.4473 12.0121 19.3237 11.99 19.2108 11.9458C19.0979 11.9017 19.0012 11.8409 18.9207 11.7634C18.8402 11.686 18.7772 11.5946 18.7315 11.4892C18.6859 11.3839 18.6631 11.27 18.6631 11.1476C18.6631 11.0253 18.6859 10.9114 18.7315 10.806C18.7772 10.7007 18.8402 10.6093 18.9207 10.5318C19.0012 10.4544 19.0979 10.3936 19.2108 10.3494C19.3237 10.3053 19.4473 10.2832 19.5818 10.2832C19.7162 10.2832 19.8399 10.3053 19.9527 10.3494C20.0656 10.3936 20.1623 10.4544 20.2428 10.5318C20.3233 10.6093 20.3864 10.7007 20.432 10.806C20.4777 10.9114 20.5005 11.0253 20.5005 11.1476C20.5005 11.27 20.4777 11.3839 20.432 11.4892C20.3864 11.5946 20.3233 11.686 20.2428 11.7634C20.1623 11.8409 20.0656 11.9017 19.9527 11.9458C19.8399 11.99 19.7162 12.0121 19.5818 12.0121ZM19.5818 11.8029C19.683 11.8029 19.7743 11.7855 19.8556 11.7507C19.937 11.7158 20.0067 11.6689 20.0648 11.6101C20.1229 11.5512 20.1677 11.4819 20.1992 11.4021C20.2308 11.3223 20.2465 11.2375 20.2465 11.1476C20.2465 11.0578 20.2308 10.973 20.1992 10.8932C20.1677 10.8134 20.1229 10.7441 20.0648 10.6852C20.0067 10.6263 19.937 10.5795 19.8556 10.5446C19.7743 10.5098 19.683 10.4923 19.5818 10.4923C19.4805 10.4923 19.3892 10.5098 19.3079 10.5446C19.2266 10.5795 19.1568 10.6263 19.0988 10.6852C19.0407 10.7441 18.9958 10.8134 18.9643 10.8932C18.9328 10.973 18.917 11.0578 18.917 11.1476C18.917 11.2375 18.9328 11.3223 18.9643 11.4021C18.9958 11.4819 19.0407 11.5512 19.0988 11.6101C19.1568 11.6689 19.2266 11.7158 19.3079 11.7507C19.3892 11.7855 19.4805 11.8029 19.5818 11.8029C19.5818 11.8029 19.4805 11.8029 19.5818 11.8029ZM20.8441 10.325H21.464C21.5769 10.325 21.6698 10.3394 21.7429 10.368C21.8159 10.3967 21.8736 10.4331 21.9159 10.4772C21.9582 10.5214 21.9877 10.571 22.0043 10.626C22.0209 10.681 22.0292 10.734 22.0292 10.7851C22.0292 10.8378 22.0192 10.8885 21.9993 10.9373C21.9794 10.9861 21.9507 11.0303 21.9134 11.0698C21.8761 11.1093 21.8304 11.1426 21.7765 11.1697C21.7225 11.1968 21.6624 11.2135 21.596 11.2197L22.0964 11.9702H21.7976L21.3495 11.2452H21.0831V11.9702H20.8441V10.325ZM21.0831 11.05H21.3968C21.4433 11.05 21.4893 11.0466 21.535 11.0396C21.5806 11.0326 21.6213 11.0198 21.657 11.0012C21.6926 10.9827 21.7213 10.9559 21.7429 10.9211C21.7644 10.8862 21.7752 10.8409 21.7752 10.7851C21.7752 10.7294 21.7644 10.684 21.7429 10.6492C21.7213 10.6143 21.6926 10.5876 21.657 10.569C21.6213 10.5504 21.5806 10.5377 21.535 10.5307C21.4893 10.5237 21.4433 10.5202 21.3968 10.5202H21.0831V11.05ZM22.3653 10.325H22.6043V11.0361H22.6242L23.4035 10.325H23.7371L22.8856 11.0849L23.7944 11.9702H23.4458L22.6242 11.1476H22.6043V11.9702H22.3653V10.325Z" fill="black"/>
<path fill-rule="evenodd" clip-rule="evenodd" d="M3.1748 5.2269H4.81837C5.09328 5.2269 5.35837 5.2663 5.61364 5.34511C5.86892 5.42392 6.09473 5.54396 6.2911 5.70524C6.48746 5.86652 6.64455 6.06903 6.76237 6.31279C6.88019 6.55654 6.9391 6.84336 6.9391 7.17325C6.9391 7.50681 6.87135 7.79546 6.73586 8.03922C6.60037 8.28297 6.42561 8.48457 6.21157 8.64402C5.99753 8.80347 5.75993 8.92259 5.49877 9.0014C5.2376 9.08021 4.98135 9.11961 4.73 9.11961H3.1748V5.2269ZM4.4708 8.49282C4.70252 8.49282 4.92146 8.46808 5.12764 8.41859C5.33382 8.36911 5.5135 8.29214 5.66666 8.18767C5.81982 8.0832 5.94059 7.94758 6.02895 7.7808C6.11731 7.61402 6.1615 7.41151 6.1615 7.17325C6.1615 6.93866 6.12222 6.73707 6.04368 6.56845C5.96513 6.39984 5.85615 6.26331 5.71673 6.15884C5.57731 6.05437 5.41237 5.9774 5.2219 5.92792C5.03142 5.87843 4.8223 5.85369 4.59451 5.85369H3.91706V8.49282H4.4708ZM7.62833 5.2269H8.37059V9.11961H7.62833V5.2269ZM11.3278 6.06262C11.2493 5.95632 11.1442 5.87843 11.0127 5.82895C10.8811 5.77946 10.7427 5.75472 10.5974 5.75472C10.511 5.75472 10.4275 5.76389 10.347 5.78221C10.2665 5.80054 10.1938 5.82986 10.129 5.87018C10.0642 5.9105 10.0122 5.96274 9.97291 6.02688C9.93364 6.09103 9.91401 6.16709 9.91401 6.25506C9.91401 6.38701 9.9631 6.48781 10.0613 6.55746C10.1595 6.6271 10.2812 6.68758 10.4265 6.7389C10.5718 6.79021 10.7309 6.8397 10.9037 6.88735C11.0765 6.935 11.2355 7.00098 11.3808 7.08528C11.5262 7.16959 11.6479 7.28138 11.7461 7.42067C11.8443 7.55996 11.8934 7.74506 11.8934 7.97599C11.8934 8.18492 11.8521 8.36728 11.7696 8.52306C11.6872 8.67884 11.5762 8.80805 11.4368 8.91068C11.2974 9.01331 11.1354 9.09029 10.9508 9.1416C10.7662 9.19292 10.5718 9.21858 10.3676 9.21858C10.1084 9.21858 9.85903 9.17826 9.61946 9.09762C9.3799 9.01698 9.17372 8.88136 9.00091 8.69075L9.56055 8.18492C9.65088 8.31321 9.76968 8.41309 9.91695 8.48457C10.0642 8.55605 10.2203 8.59179 10.3853 8.59179C10.4717 8.59179 10.5581 8.58079 10.6445 8.5588C10.7309 8.5368 10.8094 8.50381 10.8801 8.45983C10.9508 8.41584 11.0078 8.35995 11.051 8.29214C11.0942 8.22432 11.1158 8.14643 11.1158 8.05846C11.1158 7.91551 11.0667 7.80555 10.9685 7.72857C10.8703 7.6516 10.7486 7.58653 10.6032 7.53339C10.4579 7.48024 10.2989 7.42984 10.1261 7.38218C9.95328 7.33453 9.79422 7.26947 9.64891 7.187C9.5036 7.10453 9.38186 6.99456 9.28368 6.85711C9.1855 6.71965 9.13641 6.53547 9.13641 6.30454C9.13641 6.10294 9.18059 5.92883 9.26895 5.78221C9.35731 5.63559 9.47317 5.51372 9.61651 5.41658C9.75986 5.31945 9.92382 5.24706 10.1084 5.19941C10.293 5.15175 10.4815 5.12793 10.6739 5.12793C10.8939 5.12793 11.1069 5.15909 11.3131 5.2214C11.5193 5.28371 11.7048 5.38634 11.8698 5.5293C11.8698 5.5293 11.7048 5.38634 11.8698 5.5293L11.3278 6.06262ZM15.528 6.1396C15.3749 5.98565 15.2266 5.88301 15.0833 5.8317C14.9399 5.78038 14.7956 5.75472 14.6503 5.75472C14.4343 5.75472 14.2389 5.79046 14.0642 5.86194C13.8894 5.93341 13.7392 6.03238 13.6135 6.15884C13.4878 6.2853 13.3906 6.43283 13.3219 6.60144C13.2532 6.77006 13.2188 6.95149 13.2188 7.14576C13.2188 7.3547 13.2532 7.54713 13.3219 7.72307C13.3906 7.89902 13.4878 8.05113 13.6135 8.17942C13.7392 8.30771 13.8894 8.40851 14.0642 8.48182C14.2389 8.55513 14.4343 8.59179 14.6503 8.59179C14.8192 8.59179 14.9831 8.55422 15.1422 8.47907C15.3012 8.40393 15.4495 8.28389 15.587 8.11894L16.1996 8.52581C16.0111 8.76773 15.7814 8.94367 15.5104 9.05363C15.2394 9.1636 14.9507 9.21858 14.6444 9.21858C14.3224 9.21858 14.0268 9.17001 13.7578 9.07288C13.4888 8.97574 13.2571 8.83829 13.0627 8.66051C12.8683 8.48274 12.7161 8.26923 12.6062 8.01997C12.4962 7.77072 12.4412 7.49398 12.4412 7.18975C12.4412 6.87818 12.4962 6.59503 12.6062 6.34028C12.7161 6.08553 12.8683 5.86835 13.0627 5.68874C13.2571 5.50914 13.4888 5.37077 13.7578 5.27363C14.0268 5.1765 14.3224 5.12793 14.6444 5.12793C14.9272 5.12793 15.1893 5.17466 15.4308 5.26813C15.6724 5.3616 15.8972 5.52013 16.1054 5.74373C16.1054 5.74373 15.8972 5.52013 16.1054 5.74373L15.528 6.1396ZM21.1244 5.2269H21.9786L23.1155 8.16843L24.2878 5.2269H25.089L23.4042 9.11961H22.7621L21.1244 5.2269ZM25.5367 5.2269H28.2995V5.85369H26.279V6.81037H28.1935V7.43717H26.279V8.49282H28.4056V9.11961H25.5367V5.2269ZM29.136 5.2269H30.5852C30.7855 5.2269 30.9789 5.24431 31.1655 5.27913C31.352 5.31395 31.5179 5.37351 31.6632 5.45782C31.8086 5.54213 31.9244 5.65575 32.0108 5.79871C32.0972 5.94166 32.1404 6.1231 32.1404 6.34303C32.1404 6.62527 32.057 6.86169 31.89 7.05229C31.7231 7.2429 31.4846 7.35836 31.1743 7.39868L32.2818 9.11961H31.3864L30.4203 7.47016H29.8783V9.11961H29.136V5.2269ZM30.4556 6.87635C30.5616 6.87635 30.6677 6.87177 30.7737 6.86261C30.8798 6.85344 30.977 6.83145 31.0653 6.79663C31.1537 6.76181 31.2254 6.70866 31.2803 6.63718C31.3353 6.5657 31.3628 6.46582 31.3628 6.33753C31.3628 6.2239 31.3373 6.13227 31.2862 6.06262C31.2352 5.99298 31.1684 5.94074 31.0859 5.90592C31.0035 5.8711 30.9122 5.84819 30.812 5.8372C30.7119 5.8262 30.6147 5.8207 30.5204 5.8207H29.8783V6.87635H30.4556Z" fill="black"/>
<path d="M18.8656 9.22102C20.0766 9.22102 21.0583 8.30475 21.0583 7.17448C21.0583 6.0442 20.0766 5.12793 18.8656 5.12793C17.6546 5.12793 16.6729 6.0442 16.6729 7.17448C16.6729 8.30475 17.6546 9.22102 18.8656 9.22102Z" fill="#D97B16"/>
</svg>
