<svg width="32" height="21" viewBox="0 0 32 21" fill="none" xmlns="http://www.w3.org/2000/svg">
<path fill-rule="evenodd" clip-rule="evenodd" d="M29.546 0.0898438H2.39447C1.32781 0.0898438 0.455078 0.962571 0.455078 2.02924V18.5141C0.455078 19.5808 1.32781 20.4535 2.39447 20.4535H29.546C30.6127 20.4535 31.4854 19.5808 31.4854 18.5141V2.02924C31.4854 0.962571 30.6127 0.0898438 29.546 0.0898438Z" fill="#34495E"/>
<path d="M12.0906 17.0601C15.8395 17.0601 18.8785 14.0211 18.8785 10.2723C18.8785 6.52341 15.8395 3.48438 12.0906 3.48438C8.34177 3.48438 5.30273 6.52341 5.30273 10.2723C5.30273 14.0211 8.34177 17.0601 12.0906 17.0601Z" fill="#E74C3C"/>
<path d="M19.8484 17.0601C23.5973 17.0601 26.6363 14.0211 26.6363 10.2723C26.6363 6.52341 23.5973 3.48438 19.8484 3.48438C16.0996 3.48438 13.0605 6.52341 13.0605 10.2723C13.0605 14.0211 16.0996 17.0601 19.8484 17.0601Z" fill="#F1C40F"/>
<path fill-rule="evenodd" clip-rule="evenodd" d="M17.716 6.87885H12.2857C12.0918 7.16976 11.8978 7.46067 11.7039 7.84854H18.2978C18.1039 7.46067 17.9099 7.16976 17.716 6.87885ZM16.1645 4.93945H13.9342C13.6433 5.23036 13.3524 5.52127 13.0615 5.90915H17.1342C16.7463 5.52127 16.3584 5.23036 16.1645 4.93945ZM18.6857 8.81824H11.413C11.316 9.10915 11.219 9.49703 11.219 9.78794H18.8796C18.7827 9.49703 18.7827 9.10915 18.6857 8.81824ZM12.2857 13.6667H17.716C17.9099 13.3758 18.1039 13.0849 18.2978 12.697H11.7039C11.8978 13.0849 12.0918 13.3758 12.2857 13.6667ZM11.316 11.7273H18.5887C18.6857 11.4364 18.7827 11.0485 18.7827 10.7576H11.1221C11.219 11.0485 11.219 11.4364 11.316 11.7273ZM13.8372 15.6061H16.0675C16.3584 15.3152 16.6493 15.0243 16.9403 14.6364H12.8675C13.2554 15.0243 13.6433 15.3152 13.8372 15.6061Z" fill="#E74C3C"/>
</svg>
