<svg width="34" height="21" viewBox="0 0 34 21" fill="none" xmlns="http://www.w3.org/2000/svg">
<path d="M33.1267 1.92285H0.544922V18.2138H33.1267V1.92285Z" fill="#F6F6F6"/>
<path fill-rule="evenodd" clip-rule="evenodd" d="M30.6831 0.089844C29.054 0.0898441 11.8062 0.0898434 2.17401 0.089844C1.35947 0.089844 0.544922 0.904389 0.544922 1.71893V4.16257H33.1267C33.1267 4.16257 33.1267 7.94449 33.1267 2.53348C33.1267 0.904389 32.3122 0.089844 30.6831 0.089844Z" fill="#265697"/>
<path fill-rule="evenodd" clip-rule="evenodd" d="M0.544922 16.3809C0.544922 16.3809 0.544922 16.3809 0.544922 18.01C0.544922 19.639 1.35947 20.4536 2.98856 20.4536C12.0755 20.4536 29.054 20.4536 30.6831 20.4536C32.3122 20.4536 33.1267 19.639 33.1267 18.01V16.3809H0.544922Z" fill="#D97B16"/>
<path fill-rule="evenodd" clip-rule="evenodd" d="M23.2735 6.15489C22.8169 5.97984 22.1014 5.79199 21.2078 5.79199C18.9303 5.79199 17.3261 6.96394 17.3124 8.64348C17.2996 9.88504 18.4577 10.5776 19.332 10.991C20.2291 11.4145 20.5307 11.6846 20.5264 12.0628C20.5207 12.6419 19.81 12.9065 19.1475 12.9065C18.225 12.9065 17.7349 12.7756 16.9779 12.453L16.6809 12.3157L16.3574 14.2499C16.8957 14.4911 17.8913 14.7001 18.9249 14.7109C21.3477 14.7109 22.9205 13.5524 22.9384 11.7589C22.9471 10.7759 22.333 10.0279 21.0033 9.41126C20.1976 9.01155 19.7043 8.74482 19.7095 8.34008C19.7095 7.98093 20.1271 7.59688 21.0294 7.59688C21.7831 7.58492 22.3291 7.75286 22.7545 7.92792L22.961 8.02762L23.2735 6.15489Z" fill="#265697"/>
<path fill-rule="evenodd" clip-rule="evenodd" d="M29.1844 5.9502H27.4034C26.8517 5.9502 26.4388 6.10406 26.1965 6.66673L22.7734 14.5852H25.1937C25.1937 14.5852 25.5894 13.5205 25.6789 13.2868C25.9434 13.2868 28.2947 13.2905 28.6308 13.2905C28.6997 13.5929 28.9112 14.5852 28.9112 14.5852H31.0499L29.1844 5.9502ZM26.3423 11.5194C26.5329 11.0216 27.2606 9.10403 27.2606 9.10403C27.2469 9.12702 27.4498 8.60377 27.5662 8.27935L27.7219 9.02431C27.7219 9.02431 28.1633 11.0868 28.2555 11.5193L26.3423 11.5194Z" fill="#265697"/>
<path fill-rule="evenodd" clip-rule="evenodd" d="M12.6104 14.5819L14.0514 5.94141H16.3563L14.9142 14.5819H12.6104Z" fill="#265697"/>
<path fill-rule="evenodd" clip-rule="evenodd" d="M10.6774 5.94824L8.42082 11.8404L8.18039 10.643C7.76032 9.26269 6.45149 7.76717 4.98828 7.01845L7.05161 14.575L9.49021 14.5722L13.1188 5.94824H10.6774Z" fill="#265697"/>
<path fill-rule="evenodd" clip-rule="evenodd" d="M6.32706 5.94336H2.61047L2.58105 6.12313C5.47253 6.83834 7.38579 8.56674 8.17998 10.6435L7.37184 6.67283C7.23231 6.12569 6.82766 5.96243 6.32706 5.94336Z" fill="#D97B16"/>
</svg>
