<svg xmlns="http://www.w3.org/2000/svg" width="15" height="16" viewBox="0 0 15 16" fill="none">
<g clip-path="url(#clip0_1_449)">
<path d="M3.1251 2.25C3.1251 3.4375 2.6876 4.125 1.7501 4.5625C0.500098 5.125 0.312598 5.75 0.125098 9.375C-0.062402 13.25 0.062598 13.625 1.1251 13.625C1.8126 13.625 2.5001 14.0625 2.7501 14.5625C3.2501 15.9375 11.7501 15.9375 12.2501 14.5625C12.5001 14.0625 13.1876 13.625 13.8751 13.625C14.9376 13.625 15.0626 13.25 14.8751 9.375C14.6876 5.75 14.5001 5.125 13.3126 4.5625C12.3126 4.125 11.8751 3.4375 11.8751 2.25C11.8751 0.5 11.8751 0.5 7.5001 0.5C3.1251 0.5 3.1251 0.5 3.1251 2.25ZM11.2501 3.9375V6.125H7.5001H3.7501V3.9375V1.75H7.5001H11.2501V3.9375ZM13.1251 8C13.1251 8.3125 12.6876 8.625 12.1876 8.625C11.6876 8.625 11.2501 8.3125 11.2501 8C11.2501 7.625 11.6876 7.375 12.1876 7.375C12.6876 7.375 13.1251 7.625 13.1251 8ZM3.1251 11.75C3.1251 12.0625 2.6876 12.375 2.1876 12.375C1.6876 12.375 1.2501 12.0625 1.2501 11.75C1.2501 11.375 1.6876 11.125 2.1876 11.125C2.6876 11.125 3.1251 11.375 3.1251 11.75ZM11.2501 12.625C11.2501 14.25 10.2501 14.875 7.5001 14.875C4.7501 14.875 3.7501 14.25 3.7501 12.625C3.7501 11.1875 3.9376 11.125 7.5001 11.125C11.0626 11.125 11.2501 11.1875 11.2501 12.625ZM13.7501 11.75C13.7501 12.0625 13.3126 12.375 12.8126 12.375C12.3126 12.375 11.8751 12.0625 11.8751 11.75C11.8751 11.375 12.3126 11.125 12.8126 11.125C13.3126 11.125 13.7501 11.375 13.7501 11.75Z" fill="white"/>
<path d="M5 13C5 13.3125 6.125 13.625 7.5 13.625C8.875 13.625 10 13.3125 10 13C10 12.625 8.875 12.375 7.5 12.375C6.125 12.375 5 12.625 5 13Z" fill="white"/>
</g>
<defs>
<clipPath id="clip0_1_449">
<rect width="15" height="15" fill="white" transform="translate(0 0.5)"/>
</clipPath>
</defs>
</svg>