<svg xmlns="http://www.w3.org/2000/svg" width="15" height="20" viewBox="0 0 15 20" fill="none">
<path d="M1.83856 5.07079L1.83834 5.07146C1.23985 6.8742 1.46411 8.60156 3.04773 11.6685C3.99697 13.5034 5.15054 15.3015 6.77278 17.4566L6.77322 17.4572C7.01728 17.7819 7.27813 18.1212 7.51326 18.4217C10.3837 14.6837 12.4802 11.0729 13.1741 8.78825L13.1746 8.78674C13.3193 8.31284 13.3845 8.05944 13.42 7.82599C13.4551 7.59526 13.4662 7.35106 13.4663 6.8892C13.4622 6.17801 13.4493 6.07182 13.3921 5.80159C12.8913 3.50223 11.2571 1.78185 9.02756 1.1871L9.02729 1.18702C8.34672 1.00527 7.37684 0.949812 6.68196 1.04784C4.41802 1.37912 2.54296 2.94397 1.83856 5.07079ZM8.60326 3.0649L8.60329 3.06481L8.61653 3.06884C9.94132 3.472 10.9284 4.46706 11.339 5.79764C11.4461 6.14391 11.4873 6.53538 11.4873 6.88788C11.4873 7.23917 11.4464 7.62985 11.3389 7.97515C10.8995 9.39681 9.87751 10.3883 8.44055 10.7427C7.50664 10.9761 6.37561 10.8177 5.5455 10.3443L5.54549 10.3443L5.53987 10.3411C4.70793 9.85941 4.08982 9.1069 3.74905 8.18534L3.74901 8.18536L3.74595 8.17684C3.68921 8.01902 3.63015 7.84634 3.60038 7.60803C3.57555 7.40932 3.5738 7.18225 3.5738 6.90719C3.5738 6.63447 3.5744 6.40562 3.59896 6.20411C3.62828 5.96364 3.68778 5.78512 3.74789 5.61463C4.09666 4.62228 4.82805 3.7859 5.77153 3.33287L5.77318 3.33208C6.07356 3.18853 6.36647 3.07432 6.69383 3.00691C7.01981 2.9398 7.33481 2.92837 7.67179 2.94271C7.95443 2.95229 8.35504 2.9931 8.60326 3.0649Z" fill="white" stroke="white" stroke-width="2"/>
</svg>