<svg width="480" height="394" viewBox="0 0 480 394" fill="none" xmlns="http://www.w3.org/2000/svg">
<path d="M387.79 5.00002L3 148.235L94.5059 393.466L479.296 250.231L387.79 5.00002Z" fill="#A4A4A4"/>
<path d="M215.869 68.4214L174.263 83.9087C169.087 85.8354 166.457 91.5919 168.388 96.7663L203.253 190.202C205.183 195.377 210.944 198.01 216.12 196.083L257.726 180.596C262.902 178.669 265.532 172.912 263.602 167.738L228.737 74.3018C226.806 69.1275 221.045 66.4947 215.869 68.4214Z" fill="white"/>
<path d="M146.864 111.789L26.1973 156.706L48.0164 215.18L168.683 170.263L146.864 111.789Z" fill="white"/>
<path d="M75.7734 150.947L39.9248 164.291L53.2853 200.096L89.1338 186.752L75.7734 150.947Z" fill="#0657DC"/>
<path d="M139.659 128.945L82.4756 150.231L83.5904 153.219L140.774 131.933L139.659 128.945Z" fill="#0657DC"/>
<path d="M141.514 133.895L84.3301 155.181L85.4449 158.169L142.629 136.883L141.514 133.895Z" fill="#0657DC"/>
<path d="M143.361 138.841L86.1777 160.127L87.2926 163.114L144.476 141.828L143.361 138.841Z" fill="#0657DC"/>
<path d="M145.211 143.792L88.0273 165.078L89.1422 168.066L146.326 146.78L145.211 143.792Z" fill="#0657DC"/>
<path d="M147.043 148.726L89.8594 170.012L90.9742 173L148.158 151.714L147.043 148.726Z" fill="#0657DC"/>
<path d="M148.892 153.677L91.708 174.963L92.8229 177.951L150.006 156.665L148.892 153.677Z" fill="#0657DC"/>
<path d="M150.739 158.623L93.5557 179.909L94.6705 182.896L151.854 161.61L150.739 158.623Z" fill="#0657DC"/>
<path d="M315.278 108.787L265.451 127.345L246.871 77.5772L296.698 59.02L315.278 108.787ZM267.022 123.903L311.832 107.218L295.128 62.4615L250.317 79.1462L267.022 123.903Z" fill="#121213"/>
<path d="M279.74 94.38L267.393 84.1904L264.725 99.9809L269.589 98.1589L273.981 109.901L279.267 107.927L274.893 96.202L279.74 94.38Z" fill="#121213"/>
<path d="M282.409 91.9676L294.773 102.157L297.425 86.3835L292.56 88.1887L288.186 76.447L282.899 78.4208L287.274 90.1625L282.409 91.9676Z" fill="#121213"/>
<path d="M387.098 82.0479L337.27 100.605L318.69 50.8379L368.518 32.2806L387.098 82.0479ZM338.841 97.1636L383.652 80.4789L366.947 35.7221L322.136 52.4068L338.841 97.1636Z" fill="#121213"/>
<path d="M358.096 59.0875L354.228 48.7291L340.276 53.9252L344.144 64.2835C345.428 67.7082 348.975 69.6314 352.455 68.9903L357.184 81.643L351.424 83.7855L352.218 85.9281L366.17 80.732L365.376 78.5895L359.616 80.732L354.887 68.0793C357.944 66.2911 359.363 62.5121 358.079 59.0875H358.096Z" fill="#121213"/>
<path d="M381.165 1.71762L5.60347 141.518C3.05511 142.466 1.75989 145.3 2.71051 147.848C3.66113 150.396 6.49761 151.692 9.04597 150.743L384.608 10.9433C387.156 9.99473 388.452 7.16048 387.501 4.61287C386.55 2.06526 383.714 0.769015 381.165 1.71762Z" fill="white"/>
<path d="M476.806 243.921L92.0156 387.156L94.1981 393.005L478.989 249.77L476.806 243.921Z" fill="white"/>
<path opacity="0.5" d="M66.4355 355.23L78.2771 386.955L80.5334 393.017L479 244.662L476.743 238.6L401.724 37.5891C394.377 226.965 133.182 331.558 66.4355 355.23Z" fill="white"/>
</svg>
