<svg xmlns="http://www.w3.org/2000/svg" width="22" height="16" viewBox="0 0 22 16" fill="none">
<path d="M1.44938 0.858476C1.11279 1.19506 0.860352 4.64508 0.860352 8.51582V15.5H10.958H21.1397L20.8873 8.09509L20.6348 0.774328L11.2945 0.521889C6.24574 0.437742 1.78597 0.606035 1.44938 0.858476ZM15.1653 4.64508C17.5214 2.7097 19.3726 1.4475 19.3726 1.95238C19.3726 2.79385 11.9677 9.60973 10.958 9.60973C9.94819 9.60973 2.54329 2.79385 2.54329 1.95238C2.54329 1.4475 4.47866 2.7097 6.75062 4.64508L10.958 8.17924L15.1653 4.64508ZM6.75062 10.2829C6.75062 10.7036 5.82501 11.8817 4.64695 12.9756C2.2067 15.2476 1.87011 14.5744 4.05793 11.7134C5.48842 9.60973 6.75062 9.0207 6.75062 10.2829ZM17.7738 11.461C20.0458 14.2378 19.7092 15.2476 17.269 12.9756C15.2494 11.1244 14.5763 9.60973 15.6702 9.60973C15.9226 9.60973 16.8482 10.4512 17.7738 11.461Z" fill="white"/>
</svg>