<svg xmlns="http://www.w3.org/2000/svg" width="15" height="16" viewBox="0 0 15 16" fill="none">
<path d="M0.915781 0.54037C0.449717 0.651756 0.100901 1.03575 0.0158957 1.52233C-0.0280726 1.78028 0.0217582 2.83552 0.109695 3.48332C0.473166 6.15659 1.50203 8.48984 3.24903 10.5974C3.56267 10.9755 4.52412 11.937 4.90224 12.2506C7.00979 13.9976 9.34304 15.0265 12.0163 15.3899C12.67 15.4779 13.7194 15.5277 13.9802 15.4837C14.4756 15.3987 14.8655 15.0294 14.9681 14.5457C14.9886 14.4432 15.0003 13.8979 15.0003 12.9189C15.0003 11.3478 14.9944 11.2686 14.8508 10.9902C14.7717 10.8319 14.5782 10.6238 14.4287 10.5388C14.2059 10.4069 14.0623 10.3746 13.5787 10.3482C12.667 10.2955 12.0837 10.2017 11.3509 9.99063C10.9787 9.88217 10.92 9.87338 10.6738 9.8851C10.4393 9.8939 10.3836 9.90855 10.2136 9.99649C10.1052 10.0522 9.62444 10.3981 9.14079 10.7674C8.65714 11.1338 8.2497 11.4328 8.23797 11.4328C8.19987 11.4328 7.63414 11.1016 7.29119 10.8817C6.0249 10.058 5.0576 9.02333 4.27203 7.63979C4.09323 7.32908 4.06098 7.2558 4.09029 7.21183C4.10788 7.18252 4.41566 6.77215 4.77327 6.30022C5.13088 5.82536 5.45624 5.38568 5.49142 5.32119C5.52952 5.25377 5.58229 5.11894 5.60867 5.01635C5.66729 4.77892 5.6497 4.62649 5.50314 4.10474C5.30089 3.38366 5.20123 2.74758 5.16605 1.96494C5.14553 1.51354 5.10157 1.29369 4.98725 1.0973C4.8231 0.818836 4.49773 0.58727 4.18409 0.528646C3.95253 0.484677 1.10338 0.49347 0.915781 0.54037Z" fill="white"/>
</svg>