<svg width="353" height="720" viewBox="0 0 353 720" fill="none" xmlns="http://www.w3.org/2000/svg">
<path d="M0.661457 138.291H2.61675V165.76H0.661457C0.298019 165.76 0 165.462 0 165.099V138.952C0 138.589 0.298019 138.291 0.661457 138.291Z" fill="#EAEAEC"/>
<path d="M290.399 1H62.5815C29.4625 1 2.61426 27.8564 2.61426 60.9855V659.278C2.61426 692.407 29.4625 719.263 62.5815 719.263H290.399C323.518 719.263 350.366 692.407 350.366 659.278V60.9855C350.366 27.8564 323.518 1 290.399 1Z" fill="#6D6D6D" stroke="#E0E1E6" stroke-width="0.875931" stroke-miterlimit="10"/>
<path d="M2.62663 138.291H0.664062V165.76H2.62663V138.291Z" fill="white"/>
<path d="M0.661457 190.46H2.61675V244.818H0.661457C0.298019 244.818 0 244.52 0 244.156V191.114C0 190.751 0.298019 190.46 0.661457 190.46Z" fill="#EAEAEC"/>
<path d="M2.62663 190.46H0.664062V244.818H2.62663V190.46Z" fill="white"/>
<path d="M0.661457 259.759H2.61675V314.117H0.661457C0.298019 314.125 0 313.826 0 313.463V260.421C0 260.058 0.298019 259.759 0.661457 259.759Z" fill="#EAEAEC"/>
<path d="M2.62663 259.759H0.664062V314.117H2.62663V259.759Z" fill="#E0E1E4"/>
<path d="M289.543 4.94086H63.448C32.2214 4.94086 6.9043 30.2584 6.9043 61.4945V657.78C6.9043 689.016 32.2214 714.341 63.448 714.341H289.543C320.769 714.341 346.086 689.016 346.086 657.78V61.4945C346.086 30.2584 320.769 4.93359 289.543 4.93359V4.94086ZM343.179 658.201C343.179 687.416 319.504 711.098 290.299 711.098H62.6847C33.4789 711.098 9.80453 687.416 9.80453 658.201V61.0801C9.8118 31.8726 33.4861 8.19099 62.6847 8.19099H290.306C319.512 8.19099 343.186 31.8725 343.186 61.0873V658.194L343.179 658.201Z" fill="white"/>
<path d="M352.339 314.088H350.376V227.985H352.339C352.702 227.985 353 228.283 353 228.647V313.426C353 313.79 352.702 314.088 352.339 314.088Z" fill="#EAEAEC"/>
<path d="M350.367 314.088H352.329V227.985H350.367V314.088Z" fill="#E0E1E4"/>
<g clip-path="url(#clip0_526_2932)">
<rect width="317.087" height="688.481" transform="translate(17.6055 16.1092)" fill="white" fill-opacity="0.9"/>
<rect x="44.6055" y="124.109" width="268" height="42" rx="21" fill="#0657DC"/>
<path d="M145.283 147.431H147.969C147.897 148.382 147.633 149.225 147.178 149.961C146.722 150.69 146.087 151.263 145.273 151.679C144.46 152.096 143.473 152.304 142.314 152.304C141.423 152.304 140.618 152.148 139.902 151.836C139.193 151.517 138.584 151.064 138.076 150.478C137.575 149.886 137.191 149.176 136.924 148.349C136.657 147.516 136.523 146.582 136.523 145.547V144.463C136.523 143.428 136.66 142.493 136.934 141.66C137.207 140.827 137.598 140.117 138.105 139.531C138.62 138.939 139.235 138.483 139.951 138.164C140.674 137.845 141.481 137.685 142.373 137.685C143.532 137.685 144.512 137.9 145.312 138.33C146.113 138.753 146.735 139.336 147.178 140.078C147.62 140.82 147.887 141.673 147.979 142.637H145.293C145.241 142.038 145.111 141.53 144.902 141.113C144.701 140.696 144.395 140.381 143.984 140.166C143.581 139.944 143.044 139.834 142.373 139.834C141.852 139.834 141.393 139.931 140.996 140.127C140.605 140.322 140.28 140.615 140.02 141.006C139.759 141.39 139.564 141.872 139.434 142.451C139.303 143.024 139.238 143.688 139.238 144.443V145.547C139.238 146.269 139.297 146.917 139.414 147.49C139.531 148.063 139.714 148.548 139.961 148.945C140.208 149.342 140.527 149.645 140.918 149.853C141.309 150.062 141.774 150.166 142.314 150.166C142.972 150.166 143.506 150.062 143.916 149.853C144.333 149.645 144.648 149.339 144.863 148.935C145.085 148.532 145.225 148.03 145.283 147.431ZM152.383 137.109V152.109H149.795V137.109H152.383ZM151.973 146.445H151.211C151.211 145.709 151.309 145.032 151.504 144.414C151.699 143.795 151.976 143.258 152.334 142.803C152.692 142.34 153.118 141.982 153.613 141.728C154.115 141.474 154.668 141.347 155.273 141.347C155.794 141.347 156.266 141.422 156.689 141.572C157.119 141.715 157.487 141.946 157.793 142.265C158.099 142.584 158.333 143.001 158.496 143.515C158.665 144.023 158.75 144.642 158.75 145.371V152.109H156.152V145.351C156.152 144.863 156.081 144.479 155.938 144.199C155.794 143.913 155.589 143.707 155.322 143.584C155.062 143.46 154.74 143.398 154.355 143.398C153.939 143.398 153.581 143.48 153.281 143.642C152.982 143.799 152.734 144.017 152.539 144.297C152.35 144.577 152.207 144.899 152.109 145.263C152.018 145.628 151.973 146.022 151.973 146.445ZM165.771 152.304C164.971 152.304 164.251 152.174 163.613 151.914C162.975 151.653 162.432 151.292 161.982 150.83C161.54 150.361 161.198 149.817 160.957 149.199C160.723 148.574 160.605 147.903 160.605 147.187V146.797C160.605 145.983 160.723 145.244 160.957 144.58C161.191 143.909 161.523 143.333 161.953 142.851C162.383 142.37 162.897 141.998 163.496 141.738C164.095 141.478 164.756 141.347 165.479 141.347C166.227 141.347 166.888 141.474 167.461 141.728C168.034 141.976 168.512 142.327 168.896 142.783C169.281 143.239 169.57 143.786 169.766 144.424C169.961 145.055 170.059 145.755 170.059 146.523V147.607H161.777V145.83H167.52V145.635C167.507 145.224 167.428 144.85 167.285 144.512C167.142 144.166 166.921 143.893 166.621 143.691C166.322 143.483 165.934 143.379 165.459 143.379C165.075 143.379 164.74 143.463 164.453 143.633C164.173 143.795 163.939 144.03 163.75 144.336C163.568 144.635 163.431 144.993 163.34 145.41C163.249 145.827 163.203 146.289 163.203 146.797V147.187C163.203 147.63 163.262 148.04 163.379 148.418C163.503 148.795 163.682 149.124 163.916 149.404C164.157 149.678 164.443 149.892 164.775 150.049C165.114 150.198 165.498 150.273 165.928 150.273C166.468 150.273 166.956 150.169 167.393 149.961C167.835 149.746 168.219 149.43 168.545 149.013L169.844 150.361C169.622 150.687 169.323 150.999 168.945 151.299C168.574 151.598 168.125 151.842 167.598 152.031C167.07 152.213 166.462 152.304 165.771 152.304ZM176.123 150.273C176.488 150.273 176.813 150.202 177.1 150.058C177.386 149.915 177.614 149.713 177.783 149.453C177.959 149.192 178.053 148.89 178.066 148.545H180.498C180.485 149.261 180.283 149.902 179.893 150.469C179.502 151.035 178.981 151.484 178.33 151.816C177.686 152.142 176.963 152.304 176.162 152.304C175.348 152.304 174.639 152.168 174.033 151.894C173.428 151.621 172.923 151.24 172.52 150.752C172.122 150.263 171.823 149.697 171.621 149.053C171.426 148.408 171.328 147.718 171.328 146.982V146.67C171.328 145.934 171.426 145.244 171.621 144.599C171.823 143.955 172.122 143.388 172.52 142.9C172.923 142.412 173.428 142.031 174.033 141.758C174.639 141.484 175.345 141.347 176.152 141.347C177.005 141.347 177.754 141.513 178.398 141.845C179.049 142.178 179.557 142.646 179.922 143.252C180.293 143.857 180.485 144.57 180.498 145.39H178.066C178.053 145.013 177.969 144.674 177.812 144.375C177.656 144.075 177.435 143.834 177.148 143.652C176.862 143.47 176.514 143.379 176.104 143.379C175.667 143.379 175.303 143.47 175.01 143.652C174.723 143.834 174.499 144.085 174.336 144.404C174.18 144.717 174.069 145.068 174.004 145.459C173.945 145.843 173.916 146.247 173.916 146.67V146.982C173.916 147.412 173.945 147.822 174.004 148.213C174.069 148.603 174.18 148.955 174.336 149.267C174.499 149.573 174.723 149.817 175.01 150C175.303 150.182 175.674 150.273 176.123 150.273ZM184.795 137.099V152.109H182.217V137.099H184.795ZM191.416 141.543L186.816 146.709L184.326 149.238L183.506 147.236L185.43 144.814L188.301 141.543H191.416ZM188.779 152.109L185.508 147.187L187.227 145.517L191.768 152.109H188.779ZM192.324 146.933V146.728C192.324 145.954 192.435 145.241 192.656 144.59C192.878 143.932 193.2 143.362 193.623 142.881C194.046 142.399 194.564 142.025 195.176 141.758C195.788 141.484 196.484 141.347 197.266 141.347C198.06 141.347 198.763 141.484 199.375 141.758C199.993 142.025 200.514 142.399 200.938 142.881C201.361 143.362 201.683 143.932 201.904 144.59C202.126 145.241 202.236 145.954 202.236 146.728V146.933C202.236 147.702 202.126 148.414 201.904 149.072C201.683 149.723 201.361 150.293 200.938 150.781C200.514 151.263 199.997 151.637 199.385 151.904C198.773 152.171 198.073 152.304 197.285 152.304C196.504 152.304 195.804 152.171 195.186 151.904C194.567 151.637 194.046 151.263 193.623 150.781C193.2 150.293 192.878 149.723 192.656 149.072C192.435 148.414 192.324 147.702 192.324 146.933ZM194.902 146.728V146.933C194.902 147.396 194.948 147.829 195.039 148.232C195.13 148.636 195.27 148.991 195.459 149.297C195.648 149.603 195.892 149.844 196.191 150.019C196.497 150.189 196.862 150.273 197.285 150.273C197.702 150.273 198.06 150.189 198.359 150.019C198.659 149.844 198.903 149.603 199.092 149.297C199.287 148.991 199.43 148.636 199.521 148.232C199.613 147.829 199.658 147.396 199.658 146.933V146.728C199.658 146.273 199.613 145.846 199.521 145.449C199.43 145.045 199.287 144.691 199.092 144.385C198.903 144.072 198.656 143.828 198.35 143.652C198.05 143.47 197.689 143.379 197.266 143.379C196.849 143.379 196.491 143.47 196.191 143.652C195.892 143.828 195.648 144.072 195.459 144.385C195.27 144.691 195.13 145.045 195.039 145.449C194.948 145.846 194.902 146.273 194.902 146.728ZM210.4 149.599V141.543H212.998V152.109H210.557L210.4 149.599ZM210.732 147.412L211.533 147.392C211.533 148.102 211.455 148.756 211.299 149.355C211.143 149.954 210.898 150.475 210.566 150.918C210.241 151.354 209.827 151.696 209.326 151.943C208.825 152.184 208.232 152.304 207.549 152.304C207.028 152.304 206.553 152.233 206.123 152.09C205.693 151.94 205.322 151.709 205.01 151.396C204.704 151.077 204.466 150.67 204.297 150.176C204.128 149.674 204.043 149.072 204.043 148.369V141.543H206.621V148.388C206.621 148.74 206.66 149.033 206.738 149.267C206.823 149.502 206.937 149.694 207.08 149.844C207.23 149.987 207.402 150.091 207.598 150.156C207.799 150.215 208.014 150.244 208.242 150.244C208.867 150.244 209.359 150.12 209.717 149.873C210.081 149.619 210.342 149.28 210.498 148.857C210.654 148.428 210.732 147.946 210.732 147.412ZM220.283 141.543V143.398H214.229V141.543H220.283ZM215.85 138.945H218.438V149.062C218.438 149.375 218.48 149.616 218.564 149.785C218.649 149.954 218.776 150.068 218.945 150.127C219.115 150.185 219.316 150.215 219.551 150.215C219.72 150.215 219.876 150.205 220.02 150.185C220.163 150.166 220.283 150.146 220.381 150.127L220.391 152.06C220.176 152.132 219.932 152.191 219.658 152.236C219.391 152.282 219.089 152.304 218.75 152.304C218.171 152.304 217.663 152.207 217.227 152.012C216.79 151.81 216.452 151.487 216.211 151.045C215.97 150.595 215.85 150.003 215.85 149.267V138.945Z" fill="white"/>
<rect x="44.6055" y="182.109" width="268" height="31" rx="15.5" fill="#C0C0C0"/>
<rect x="44.6055" y="229.109" width="268" height="18" rx="9" fill="#C0C0C0"/>
<rect x="44.6055" y="263.109" width="268" height="18" rx="9" fill="#C0C0C0"/>
<rect x="44.6055" y="297.109" width="268" height="18" rx="9" fill="#C0C0C0"/>
<rect x="28.2887" y="43.7924" width="294.634" height="63.8397" rx="20.3168" fill="#184CA1" fill-opacity="0.05"/>
<path d="M67.1725 60.9789V61.4429C67.1725 62.1235 67.0818 62.7361 66.9003 63.2806C66.7188 63.8209 66.461 64.2809 66.1269 64.6604C65.7928 65.0399 65.3947 65.3307 64.9327 65.5328C64.4707 65.7349 63.9572 65.836 63.3921 65.836C62.8352 65.836 62.3237 65.7349 61.8576 65.5328C61.3956 65.3307 60.9955 65.0399 60.6572 64.6604C60.319 64.2809 60.0571 63.8209 59.8714 63.2806C59.6858 62.7361 59.593 62.1235 59.593 61.4429V60.9789C59.593 60.2941 59.6858 59.6816 59.8714 59.1412C60.0571 58.6009 60.3169 58.1409 60.651 57.7614C60.9852 57.3778 61.3832 57.0849 61.8452 56.8828C62.3113 56.6807 62.8228 56.5796 63.3797 56.5796C63.9448 56.5796 64.4583 56.6807 64.9203 56.8828C65.3823 57.0849 65.7804 57.3778 66.1145 57.7614C66.4527 58.1409 66.7126 58.6009 66.8941 59.1412C67.0797 59.6816 67.1725 60.2941 67.1725 60.9789ZM65.4525 61.4429V60.9665C65.4525 60.4756 65.4071 60.0446 65.3163 59.6733C65.2256 59.298 65.0915 58.9824 64.9142 58.7267C64.7368 58.4709 64.5182 58.2791 64.2583 58.1512C63.9984 58.0192 63.7056 57.9532 63.3797 57.9532C63.0497 57.9532 62.7568 58.0192 62.5011 58.1512C62.2495 58.2791 62.035 58.4709 61.8576 58.7267C61.6802 58.9824 61.5441 59.298 61.4492 59.6733C61.3585 60.0446 61.3131 60.4756 61.3131 60.9665V61.4429C61.3131 61.9297 61.3585 62.3607 61.4492 62.7361C61.5441 63.1115 61.6802 63.4291 61.8576 63.6889C62.0391 63.9447 62.2577 64.1386 62.5134 64.2706C62.7692 64.4026 63.0621 64.4686 63.3921 64.4686C63.722 64.4686 64.0149 64.4026 64.2707 64.2706C64.5264 64.1386 64.7409 63.9447 64.9142 63.6889C65.0915 63.4291 65.2256 63.1115 65.3163 62.7361C65.4071 62.3607 65.4525 61.9297 65.4525 61.4429ZM72.4751 64.1221V59.0175H74.121V65.7122H72.5741L72.4751 64.1221ZM72.6855 62.7361L73.1929 62.7237C73.1929 63.1733 73.1434 63.5879 73.0444 63.9674C72.9454 64.3469 72.7907 64.6769 72.5803 64.9574C72.3741 65.2337 72.1121 65.4503 71.7945 65.607C71.4769 65.7597 71.1015 65.836 70.6684 65.836C70.3384 65.836 70.0373 65.7906 69.7651 65.6998C69.4928 65.605 69.2577 65.4585 69.0597 65.2605C68.8658 65.0584 68.7153 64.8006 68.608 64.4871C68.5008 64.1695 68.4471 63.7879 68.4471 63.3425V59.0175H70.0806V63.3548C70.0806 63.5776 70.1054 63.7632 70.1549 63.9117C70.2085 64.0602 70.2807 64.1819 70.3714 64.2767C70.4663 64.3675 70.5756 64.4335 70.6994 64.4747C70.8272 64.5119 70.9633 64.5304 71.1077 64.5304C71.5037 64.5304 71.8151 64.4521 72.042 64.2953C72.273 64.1344 72.438 63.9199 72.537 63.6518C72.636 63.3796 72.6855 63.0743 72.6855 62.7361ZM77.2023 60.3849V65.7122H75.5688V59.0175H77.1157L77.2023 60.3849ZM79.2379 58.9742L79.2132 60.4963C79.1224 60.4798 79.0193 60.4674 78.9038 60.4591C78.7924 60.4509 78.6873 60.4468 78.5883 60.4468C78.3366 60.4468 78.116 60.4818 77.9262 60.5519C77.7365 60.6179 77.5777 60.7149 77.4498 60.8428C77.326 60.9706 77.2312 61.1274 77.1652 61.313C77.0992 61.4945 77.062 61.7007 77.0538 61.9317L76.7011 61.8884C76.7011 61.4636 76.7444 61.0696 76.831 60.7066C76.9177 60.3436 77.0435 60.026 77.2085 59.7538C77.3735 59.4815 77.5797 59.2712 77.8272 59.1227C78.0788 58.97 78.3676 58.8937 78.6934 58.8937C78.7842 58.8937 78.8811 58.902 78.9843 58.9185C79.0915 58.9308 79.1761 58.9494 79.2379 58.9742ZM85.116 56.7034V65.7122H83.4144V56.7034H85.116ZM88.7479 60.5953V61.9379H84.6705V60.5953H88.7479ZM89.2244 56.7034V58.0461H84.6705V56.7034H89.2244ZM89.8307 62.4329V62.303C89.8307 61.8121 89.9009 61.3604 90.0411 60.9479C90.1814 60.5313 90.3855 60.1704 90.6537 59.8651C90.9218 59.5599 91.2497 59.3227 91.6374 59.1536C92.0252 58.9803 92.4666 58.8937 92.9615 58.8937C93.4648 58.8937 93.9103 58.9803 94.298 59.1536C94.6899 59.3227 95.0199 59.5599 95.288 59.8651C95.5561 60.1704 95.7603 60.5313 95.9006 60.9479C96.0408 61.3604 96.1109 61.8121 96.1109 62.303V62.4329C96.1109 62.9196 96.0408 63.3713 95.9006 63.7879C95.7603 64.2004 95.5561 64.5614 95.288 64.8707C95.0199 65.176 94.692 65.4132 94.3042 65.5823C93.9165 65.7514 93.473 65.836 92.9739 65.836C92.4789 65.836 92.0355 65.7514 91.6436 65.5823C91.2518 65.4132 90.9218 65.176 90.6537 64.8707C90.3855 64.5614 90.1814 64.2004 90.0411 63.7879C89.9009 63.3713 89.8307 62.9196 89.8307 62.4329ZM91.4642 62.303V62.4329C91.4642 62.7258 91.4931 63.0001 91.5508 63.2558C91.6086 63.5116 91.6973 63.7364 91.8169 63.9303C91.9365 64.1241 92.0912 64.2767 92.2809 64.3881C92.4748 64.4954 92.7058 64.549 92.9739 64.549C93.2379 64.549 93.4648 64.4954 93.6545 64.3881C93.8443 64.2767 93.999 64.1241 94.1186 63.9303C94.2423 63.7364 94.3331 63.5116 94.3908 63.2558C94.4486 63.0001 94.4775 62.7258 94.4775 62.4329V62.303C94.4775 62.0142 94.4486 61.744 94.3908 61.4924C94.3331 61.2367 94.2423 61.0119 94.1186 60.818C93.999 60.62 93.8422 60.4653 93.6483 60.3539C93.4586 60.2384 93.2297 60.1807 92.9615 60.1807C92.6976 60.1807 92.4707 60.2384 92.2809 60.3539C92.0912 60.4653 91.9365 60.62 91.8169 60.818C91.6973 61.0119 91.6086 61.2367 91.5508 61.4924C91.4931 61.744 91.4642 62.0142 91.4642 62.303ZM98.9324 60.3849V65.7122H97.2989V59.0175H98.8457L98.9324 60.3849ZM100.968 58.9742L100.943 60.4963C100.853 60.4798 100.749 60.4674 100.634 60.4591C100.523 60.4509 100.417 60.4468 100.318 60.4468C100.067 60.4468 99.846 60.4818 99.6563 60.5519C99.4665 60.6179 99.3077 60.7149 99.1799 60.8428C99.0561 60.9706 98.9612 61.1274 98.8952 61.313C98.8292 61.4945 98.7921 61.7007 98.7839 61.9317L98.4312 61.8884C98.4312 61.4636 98.4745 61.0696 98.5611 60.7066C98.6478 60.3436 98.7736 60.026 98.9386 59.7538C99.1036 59.4815 99.3098 59.2712 99.5573 59.1227C99.8089 58.97 100.098 58.8937 100.424 58.8937C100.514 58.8937 100.611 58.902 100.714 58.9185C100.822 58.9308 100.906 58.9494 100.968 58.9742ZM103.492 60.3911V65.7122H101.859V59.0175H103.4L103.492 60.3911ZM103.251 62.1235H102.75C102.75 61.6574 102.806 61.2284 102.917 60.8366C103.033 60.4447 103.202 60.1044 103.424 59.8156C103.647 59.5228 103.921 59.2959 104.247 59.135C104.577 58.9742 104.959 58.8937 105.392 58.8937C105.693 58.8937 105.969 58.9391 106.221 59.0298C106.473 59.1165 106.689 59.2547 106.871 59.4444C107.056 59.63 107.199 59.8734 107.298 60.1745C107.397 60.4715 107.446 60.8283 107.446 61.2449V65.7122H105.813V61.412C105.813 61.0985 105.767 60.8531 105.677 60.6757C105.59 60.4983 105.464 60.3746 105.299 60.3044C105.134 60.2302 104.936 60.1931 104.705 60.1931C104.449 60.1931 104.229 60.2446 104.043 60.3478C103.862 60.4468 103.711 60.5849 103.591 60.7623C103.476 60.9397 103.389 61.1439 103.332 61.3749C103.278 61.6059 103.251 61.8554 103.251 62.1235ZM107.322 61.8204L106.648 61.9441C106.652 61.5234 106.71 61.1294 106.821 60.7623C106.933 60.3911 107.096 60.0673 107.31 59.7909C107.529 59.5104 107.799 59.2918 108.121 59.135C108.446 58.9742 108.822 58.8937 109.247 58.8937C109.577 58.8937 109.874 58.9412 110.138 59.036C110.406 59.1268 110.635 59.2732 110.825 59.4753C111.014 59.6733 111.159 59.9311 111.258 60.2488C111.361 60.5664 111.412 60.9541 111.412 61.412V65.7122H109.766V61.4058C109.766 61.0799 109.721 60.8304 109.63 60.6571C109.544 60.4839 109.418 60.3643 109.253 60.2983C109.088 60.2281 108.894 60.1931 108.671 60.1931C108.444 60.1931 108.246 60.2364 108.077 60.323C107.912 60.4055 107.772 60.521 107.657 60.6695C107.545 60.818 107.461 60.9912 107.403 61.1892C107.349 61.3831 107.322 61.5935 107.322 61.8204ZM116.863 64.1221V59.0175H118.509V65.7122H116.962L116.863 64.1221ZM117.074 62.7361L117.581 62.7237C117.581 63.1733 117.532 63.5879 117.433 63.9674C117.334 64.3469 117.179 64.6769 116.969 64.9574C116.762 65.2337 116.5 65.4503 116.183 65.607C115.865 65.7597 115.49 65.836 115.057 65.836C114.727 65.836 114.426 65.7906 114.153 65.6998C113.881 65.605 113.646 65.4585 113.448 65.2605C113.254 65.0584 113.104 64.8006 112.996 64.4871C112.889 64.1695 112.835 63.7879 112.835 63.3425V59.0175H114.469V63.3548C114.469 63.5776 114.494 63.7632 114.543 63.9117C114.597 64.0602 114.669 64.1819 114.76 64.2767C114.855 64.3675 114.964 64.4335 115.088 64.4747C115.215 64.5119 115.352 64.5304 115.496 64.5304C115.892 64.5304 116.203 64.4521 116.43 64.2953C116.661 64.1344 116.826 63.9199 116.925 63.6518C117.024 63.3796 117.074 63.0743 117.074 62.7361ZM121.69 56.2084V65.7122H120.05V56.2084H121.69ZM126.936 64.2891V61.2016C126.936 60.9747 126.897 60.7788 126.819 60.6138C126.741 60.4488 126.621 60.3209 126.46 60.2302C126.299 60.1395 126.095 60.0941 125.847 60.0941C125.629 60.0941 125.437 60.1312 125.272 60.2055C125.111 60.2797 124.987 60.3849 124.901 60.521C124.814 60.653 124.771 60.8056 124.771 60.9789H123.131C123.131 60.7025 123.197 60.4406 123.329 60.1931C123.461 59.9415 123.649 59.7187 123.892 59.5248C124.14 59.3268 124.435 59.1722 124.777 59.0608C125.124 58.9494 125.511 58.8937 125.94 58.8937C126.448 58.8937 126.899 58.9803 127.295 59.1536C127.695 59.3227 128.009 59.5785 128.236 59.9208C128.467 60.2632 128.582 60.6943 128.582 61.214V64.1344C128.582 64.4686 128.603 64.7552 128.644 64.9945C128.69 65.2296 128.756 65.4338 128.842 65.607V65.7122H127.178C127.099 65.5431 127.04 65.3286 126.998 65.0687C126.957 64.8047 126.936 64.5449 126.936 64.2891ZM127.165 61.6347L127.178 62.6062H126.144C125.889 62.6062 125.664 62.633 125.47 62.6866C125.276 62.7361 125.117 62.8103 124.994 62.9093C124.87 63.0042 124.777 63.1197 124.715 63.2558C124.653 63.3878 124.622 63.5384 124.622 63.7075C124.622 63.8725 124.659 64.021 124.734 64.153C124.812 64.285 124.923 64.3902 125.068 64.4686C125.216 64.5428 125.39 64.5799 125.588 64.5799C125.876 64.5799 126.128 64.5222 126.342 64.4067C126.557 64.2871 126.724 64.1427 126.844 63.9736C126.963 63.8044 127.027 63.6436 127.035 63.4909L127.506 64.1963C127.448 64.3654 127.361 64.5449 127.246 64.7346C127.13 64.9244 126.982 65.1017 126.8 65.2667C126.619 65.4317 126.4 65.5678 126.144 65.6751C125.889 65.7823 125.592 65.836 125.253 65.836C124.82 65.836 124.433 65.7493 124.09 65.5761C123.748 65.4029 123.478 65.1657 123.28 64.8645C123.082 64.5634 122.983 64.2211 122.983 63.8374C122.983 63.4827 123.049 63.1692 123.181 62.897C123.313 62.6247 123.509 62.3958 123.769 62.2102C124.028 62.0204 124.35 61.8781 124.734 61.7832C125.121 61.6842 125.565 61.6347 126.064 61.6347H127.165ZM135.351 65.7122H133.705V58.3987C133.705 57.8955 133.802 57.4727 133.996 57.1303C134.19 56.7838 134.466 56.5219 134.825 56.3445C135.184 56.1672 135.607 56.0785 136.094 56.0785C136.255 56.0785 136.407 56.0888 136.552 56.1094C136.7 56.13 136.847 56.1589 136.991 56.196L136.96 57.4397C136.882 57.4191 136.795 57.4046 136.7 57.3964C136.609 57.3881 136.508 57.384 136.397 57.384C136.174 57.384 135.984 57.4232 135.828 57.5016C135.671 57.5799 135.551 57.6954 135.469 57.8481C135.39 57.9966 135.351 58.1801 135.351 58.3987V65.7122ZM136.706 59.0175V60.1931H132.697V59.0175H136.706ZM137.424 62.4329V62.303C137.424 61.8121 137.494 61.3604 137.634 60.9479C137.775 60.5313 137.979 60.1704 138.247 59.8651C138.515 59.5599 138.843 59.3227 139.231 59.1536C139.619 58.9803 140.06 58.8937 140.555 58.8937C141.058 58.8937 141.504 58.9803 141.891 59.1536C142.283 59.3227 142.613 59.5599 142.881 59.8651C143.149 60.1704 143.354 60.5313 143.494 60.9479C143.634 61.3604 143.704 61.8121 143.704 62.303V62.4329C143.704 62.9196 143.634 63.3713 143.494 63.7879C143.354 64.2004 143.149 64.5614 142.881 64.8707C142.613 65.176 142.285 65.4132 141.898 65.5823C141.51 65.7514 141.066 65.836 140.567 65.836C140.072 65.836 139.629 65.7514 139.237 65.5823C138.845 65.4132 138.515 65.176 138.247 64.8707C137.979 64.5614 137.775 64.2004 137.634 63.7879C137.494 63.3713 137.424 62.9196 137.424 62.4329ZM139.058 62.303V62.4329C139.058 62.7258 139.086 63.0001 139.144 63.2558C139.202 63.5116 139.291 63.7364 139.41 63.9303C139.53 64.1241 139.685 64.2767 139.874 64.3881C140.068 64.4954 140.299 64.549 140.567 64.549C140.831 64.549 141.058 64.4954 141.248 64.3881C141.438 64.2767 141.592 64.1241 141.712 63.9303C141.836 63.7364 141.926 63.5116 141.984 63.2558C142.042 63.0001 142.071 62.7258 142.071 62.4329V62.303C142.071 62.0142 142.042 61.744 141.984 61.4924C141.926 61.2367 141.836 61.0119 141.712 60.818C141.592 60.62 141.436 60.4653 141.242 60.3539C141.052 60.2384 140.823 60.1807 140.555 60.1807C140.291 60.1807 140.064 60.2384 139.874 60.3539C139.685 60.4653 139.53 60.62 139.41 60.818C139.291 61.0119 139.202 61.2367 139.144 61.4924C139.086 61.744 139.058 62.0142 139.058 62.303ZM146.526 60.3849V65.7122H144.892V59.0175H146.439L146.526 60.3849ZM148.561 58.9742L148.537 60.4963C148.446 60.4798 148.343 60.4674 148.227 60.4591C148.116 60.4509 148.011 60.4468 147.912 60.4468C147.66 60.4468 147.439 60.4818 147.25 60.5519C147.06 60.6179 146.901 60.7149 146.773 60.8428C146.649 60.9706 146.555 61.1274 146.489 61.313C146.423 61.4945 146.385 61.7007 146.377 61.9317L146.025 61.8884C146.025 61.4636 146.068 61.0696 146.154 60.7066C146.241 60.3436 146.367 60.026 146.532 59.7538C146.697 59.4815 146.903 59.2712 147.151 59.1227C147.402 58.97 147.691 58.8937 148.017 58.8937C148.108 58.8937 148.205 58.902 148.308 58.9185C148.415 58.9308 148.499 58.9494 148.561 58.9742ZM154.575 64.9697L156.37 59.0175H158.121L155.436 66.7269C155.374 66.8919 155.293 67.0714 155.194 67.2653C155.099 67.4591 154.971 67.6427 154.811 67.8159C154.65 67.9933 154.448 68.1377 154.204 68.249C153.965 68.3604 153.674 68.4161 153.332 68.4161C153.183 68.4161 153.051 68.4058 152.936 68.3852C152.82 68.3645 152.699 68.3377 152.571 68.3047V67.0796C152.612 67.0838 152.659 67.0858 152.713 67.0858C152.771 67.0899 152.82 67.092 152.862 67.092C153.101 67.092 153.299 67.0631 153.456 67.0054C153.612 66.9518 153.738 66.8631 153.833 66.7393C153.932 66.6197 154.014 66.463 154.08 66.2691L154.575 64.9697ZM153.691 59.0175L155.207 63.9488L155.473 65.6751L154.347 65.8793L151.927 59.0175H153.691ZM158.523 62.4329V62.303C158.523 61.8121 158.593 61.3604 158.733 60.9479C158.874 60.5313 159.078 60.1704 159.346 59.8651C159.614 59.5599 159.942 59.3227 160.33 59.1536C160.717 58.9803 161.159 58.8937 161.654 58.8937C162.157 58.8937 162.603 58.9803 162.99 59.1536C163.382 59.3227 163.712 59.5599 163.98 59.8651C164.248 60.1704 164.453 60.5313 164.593 60.9479C164.733 61.3604 164.803 61.8121 164.803 62.303V62.4329C164.803 62.9196 164.733 63.3713 164.593 63.7879C164.453 64.2004 164.248 64.5614 163.98 64.8707C163.712 65.176 163.384 65.4132 162.997 65.5823C162.609 65.7514 162.165 65.836 161.666 65.836C161.171 65.836 160.728 65.7514 160.336 65.5823C159.944 65.4132 159.614 65.176 159.346 64.8707C159.078 64.5614 158.874 64.2004 158.733 63.7879C158.593 63.3713 158.523 62.9196 158.523 62.4329ZM160.157 62.303V62.4329C160.157 62.7258 160.185 63.0001 160.243 63.2558C160.301 63.5116 160.39 63.7364 160.509 63.9303C160.629 64.1241 160.783 64.2767 160.973 64.3881C161.167 64.4954 161.398 64.549 161.666 64.549C161.93 64.549 162.157 64.4954 162.347 64.3881C162.537 64.2767 162.691 64.1241 162.811 63.9303C162.935 63.7364 163.025 63.5116 163.083 63.2558C163.141 63.0001 163.17 62.7258 163.17 62.4329V62.303C163.17 62.0142 163.141 61.744 163.083 61.4924C163.025 61.2367 162.935 61.0119 162.811 60.818C162.691 60.62 162.535 60.4653 162.341 60.3539C162.151 60.2384 161.922 60.1807 161.654 60.1807C161.39 60.1807 161.163 60.2384 160.973 60.3539C160.783 60.4653 160.629 60.62 160.509 60.818C160.39 61.0119 160.301 61.2367 160.243 61.4924C160.185 61.744 160.157 62.0142 160.157 62.303ZM169.976 64.1221V59.0175H171.622V65.7122H170.075L169.976 64.1221ZM170.186 62.7361L170.694 62.7237C170.694 63.1733 170.644 63.5879 170.545 63.9674C170.446 64.3469 170.291 64.6769 170.081 64.9574C169.875 65.2337 169.613 65.4503 169.295 65.607C168.978 65.7597 168.602 65.836 168.169 65.836C167.839 65.836 167.538 65.7906 167.266 65.6998C166.994 65.605 166.758 65.4585 166.56 65.2605C166.367 65.0584 166.216 64.8006 166.109 64.4871C166.002 64.1695 165.948 63.7879 165.948 63.3425V59.0175H167.581V63.3548C167.581 63.5776 167.606 63.7632 167.656 63.9117C167.709 64.0602 167.781 64.1819 167.872 64.2767C167.967 64.3675 168.076 64.4335 168.2 64.4747C168.328 64.5119 168.464 64.5304 168.608 64.5304C169.004 64.5304 169.316 64.4521 169.543 64.2953C169.774 64.1344 169.939 63.9199 170.038 63.6518C170.137 63.3796 170.186 63.0743 170.186 62.7361ZM182.103 60.4344V61.9503C182.103 62.6433 182.033 63.2352 181.893 63.7261C181.753 64.2169 181.55 64.6191 181.286 64.9326C181.022 65.242 180.707 65.4709 180.34 65.6194C179.973 65.7638 179.564 65.836 179.115 65.836C178.756 65.836 178.422 65.7906 178.112 65.6998C177.803 65.605 177.524 65.4606 177.277 65.2667C177.034 65.0687 176.823 64.8171 176.646 64.5119C176.473 64.2066 176.339 63.8416 176.244 63.4167C176.153 62.9918 176.108 62.503 176.108 61.9503V60.4344C176.108 59.7414 176.178 59.1515 176.318 58.6648C176.462 58.1781 176.666 57.78 176.93 57.4706C177.194 57.1613 177.51 56.9365 177.877 56.7962C178.244 56.6518 178.653 56.5796 179.102 56.5796C179.465 56.5796 179.799 56.625 180.105 56.7158C180.414 56.8065 180.69 56.9488 180.934 57.1427C181.181 57.3324 181.392 57.5799 181.565 57.8852C181.738 58.1863 181.87 58.5493 181.961 58.9742C182.056 59.3949 182.103 59.8816 182.103 60.4344ZM180.47 62.173V60.2055C180.47 59.859 180.449 59.5578 180.408 59.3021C180.371 59.0422 180.315 58.8215 180.241 58.64C180.166 58.4585 180.074 58.3121 179.962 58.2007C179.851 58.0852 179.723 58.0007 179.579 57.9471C179.434 57.8934 179.276 57.8666 179.102 57.8666C178.888 57.8666 178.696 57.9099 178.527 57.9966C178.358 58.0791 178.215 58.2111 178.1 58.3925C177.984 58.574 177.896 58.8154 177.834 59.1165C177.776 59.4135 177.747 59.7765 177.747 60.2055V62.173C177.747 62.5195 177.766 62.8227 177.803 63.0826C177.844 63.3425 177.902 63.5652 177.976 63.7508C178.055 63.9364 178.147 64.0891 178.255 64.2087C178.366 64.3242 178.494 64.4108 178.638 64.4686C178.783 64.5222 178.941 64.549 179.115 64.549C179.333 64.549 179.525 64.5057 179.69 64.4191C179.859 64.3324 180.001 64.1963 180.117 64.0107C180.232 63.8209 180.319 63.5755 180.377 63.2744C180.439 62.9691 180.47 62.602 180.47 62.173ZM183.532 64.914C183.532 64.6666 183.617 64.4582 183.786 64.2891C183.955 64.12 184.184 64.0354 184.473 64.0354C184.762 64.0354 184.991 64.12 185.16 64.2891C185.329 64.4582 185.413 64.6666 185.413 64.914C185.413 65.1574 185.329 65.3637 185.16 65.5328C184.991 65.6978 184.762 65.7803 184.473 65.7803C184.184 65.7803 183.955 65.6978 183.786 65.5328C183.617 65.3637 183.532 65.1574 183.532 64.914ZM191.186 56.6786V65.7122H189.547V58.5905L187.375 59.3083V57.9842L191.001 56.6786H191.186ZM194.175 58.9123V58.4359C194.175 58.0935 194.249 57.7821 194.397 57.5016C194.546 57.2211 194.763 56.9963 195.047 56.8271C195.336 56.658 195.687 56.5735 196.099 56.5735C196.52 56.5735 196.872 56.658 197.157 56.8271C197.446 56.9963 197.662 57.2211 197.807 57.5016C197.955 57.7821 198.029 58.0935 198.029 58.4359V58.9123C198.029 59.2464 197.955 59.5537 197.807 59.8342C197.662 60.1147 197.448 60.3395 197.163 60.5086C196.879 60.6778 196.528 60.7623 196.111 60.7623C195.695 60.7623 195.342 60.6778 195.053 60.5086C194.765 60.3395 194.546 60.1147 194.397 59.8342C194.249 59.5537 194.175 59.2464 194.175 58.9123ZM195.282 58.4359V58.9123C195.282 59.069 195.311 59.2175 195.369 59.3578C195.431 59.4939 195.524 59.6053 195.647 59.6919C195.771 59.7785 195.926 59.8218 196.111 59.8218C196.297 59.8218 196.448 59.7785 196.563 59.6919C196.683 59.6053 196.771 59.4939 196.829 59.3578C196.891 59.2175 196.922 59.069 196.922 58.9123V58.4359C196.922 58.275 196.891 58.1244 196.829 57.9842C196.771 57.8439 196.681 57.7305 196.557 57.6439C196.437 57.5573 196.285 57.5139 196.099 57.5139C195.918 57.5139 195.765 57.5573 195.641 57.6439C195.522 57.7305 195.431 57.8439 195.369 57.9842C195.311 58.1244 195.282 58.275 195.282 58.4359ZM198.5 63.9798V63.5033C198.5 63.1651 198.574 62.8557 198.722 62.5752C198.875 62.2947 199.096 62.0699 199.384 61.9008C199.673 61.7317 200.022 61.6471 200.43 61.6471C200.855 61.6471 201.21 61.7317 201.494 61.9008C201.779 62.0699 201.994 62.2947 202.138 62.5752C202.286 62.8557 202.361 63.1651 202.361 63.5033V63.9798C202.361 64.318 202.286 64.6274 202.138 64.9079C201.994 65.1884 201.779 65.4132 201.494 65.5823C201.214 65.7514 200.865 65.836 200.449 65.836C200.032 65.836 199.677 65.7514 199.384 65.5823C199.096 65.4132 198.875 65.1884 198.722 64.9079C198.574 64.6274 198.5 64.318 198.5 63.9798ZM199.613 63.5033V63.9798C199.613 64.1406 199.646 64.2912 199.712 64.4314C199.778 64.5676 199.873 64.6789 199.997 64.7655C200.125 64.8522 200.273 64.8955 200.443 64.8955C200.649 64.8955 200.812 64.8522 200.931 64.7655C201.051 64.6789 201.136 64.5676 201.185 64.4314C201.235 64.2912 201.259 64.1406 201.259 63.9798V63.5033C201.259 63.3425 201.228 63.194 201.166 63.0578C201.105 62.9176 201.012 62.8042 200.888 62.7175C200.768 62.6309 200.616 62.5876 200.43 62.5876C200.249 62.5876 200.096 62.6309 199.972 62.7175C199.853 62.8042 199.762 62.9176 199.7 63.0578C199.642 63.194 199.613 63.3425 199.613 63.5033ZM200.839 57.9904L196.439 65.0316L195.629 64.5799L200.028 57.5387L200.839 57.9904Z" fill="#121213"/>
<path d="M62.6743 83.8697H64.0572C64.546 83.8697 64.9482 83.7862 65.2637 83.6191C65.5855 83.4459 65.8237 83.2108 65.9784 82.9138C66.1393 82.6106 66.2197 82.261 66.2197 81.865C66.2197 81.4752 66.1485 81.138 66.0062 80.8534C65.8639 80.5626 65.6474 80.3398 65.3565 80.1851C65.0719 80.0243 64.7069 79.9438 64.2614 79.9438C63.9025 79.9438 63.5715 80.015 63.2683 80.1573C62.9713 80.2996 62.7331 80.5038 62.5537 80.7698C62.3804 81.0297 62.2938 81.3422 62.2938 81.7072H59.8343C59.8343 80.9771 60.0261 80.3367 60.4097 79.786C60.7995 79.2292 61.3255 78.793 61.9875 78.4774C62.6496 78.1619 63.389 78.0041 64.2057 78.0041C65.0967 78.0041 65.8763 78.1526 66.5445 78.4496C67.219 78.7404 67.7418 79.1704 68.113 79.7396C68.4905 80.3089 68.6792 81.0142 68.6792 81.8557C68.6792 82.2579 68.5833 82.6601 68.3915 83.0623C68.2058 83.4583 67.9305 83.8171 67.5654 84.1389C67.2066 84.4544 66.7642 84.7112 66.2383 84.9092C65.7185 85.101 65.1214 85.1969 64.447 85.1969H62.6743V83.8697ZM62.6743 85.7631V84.4544H64.447C65.2081 84.4544 65.867 84.5441 66.4239 84.7236C66.9869 84.8968 67.451 85.1443 67.816 85.4661C68.1811 85.7816 68.4502 86.1498 68.6235 86.5705C68.8029 86.9912 68.8926 87.4429 68.8926 87.9255C68.8926 88.5567 68.7751 89.1197 68.54 89.6147C68.3048 90.1035 67.9738 90.5181 67.5469 90.8584C67.1261 91.1987 66.6311 91.4585 66.0619 91.638C65.4927 91.8112 64.877 91.8978 64.215 91.8978C63.6396 91.8978 63.0796 91.8205 62.5351 91.6658C61.9968 91.5049 61.5111 91.2667 61.078 90.9512C60.6449 90.6294 60.3015 90.2272 60.0478 89.7446C59.7941 89.2558 59.6673 88.6897 59.6673 88.0462H62.1267C62.1267 88.4174 62.2165 88.7485 62.3959 89.0393C62.5815 89.3301 62.8352 89.559 63.1569 89.7261C63.4849 89.8869 63.853 89.9674 64.2614 89.9674C64.7131 89.9674 65.0998 89.8869 65.4215 89.7261C65.7494 89.559 66 89.3239 66.1733 89.0207C66.3465 88.7113 66.4332 88.3432 66.4332 87.9163C66.4332 87.4089 66.3372 86.9974 66.1454 86.6819C65.9536 86.3663 65.6783 86.1343 65.3194 85.9858C64.9667 85.8373 64.546 85.7631 64.0572 85.7631H62.6743ZM77.0136 78.199H79.2225L82.9163 88.371L86.6009 78.199H88.8191L83.798 91.7122H82.0254L77.0136 78.199ZM75.8998 78.199H78.0623L78.4521 87.545V91.7122H75.8998V78.199ZM87.7611 78.199H89.9328V91.7122H87.3805V87.545L87.7611 78.199ZM91.9097 86.7933V86.5983C91.9097 85.8621 92.0149 85.1845 92.2252 84.5658C92.4356 83.9409 92.7419 83.3995 93.1441 82.9416C93.5463 82.4837 94.0382 82.128 94.6198 81.8743C95.2014 81.6144 95.8634 81.4845 96.6059 81.4845C97.3608 81.4845 98.029 81.6144 98.6106 81.8743C99.1984 82.128 99.6934 82.4837 100.096 82.9416C100.498 83.3995 100.804 83.9409 101.014 84.5658C101.225 85.1845 101.33 85.8621 101.33 86.5983V86.7933C101.33 87.5234 101.225 88.2009 101.014 88.8258C100.804 89.4445 100.498 89.9859 100.096 90.45C99.6934 90.9079 99.2015 91.2636 98.6199 91.5173C98.0383 91.771 97.3731 91.8978 96.6245 91.8978C95.882 91.8978 95.2168 91.771 94.629 91.5173C94.0412 91.2636 93.5463 90.9079 93.1441 90.45C92.7419 89.9859 92.4356 89.4445 92.2252 88.8258C92.0149 88.2009 91.9097 87.5234 91.9097 86.7933ZM94.3599 86.5983V86.7933C94.3599 87.2326 94.4032 87.644 94.4898 88.0276C94.5765 88.4113 94.7095 88.7485 94.8889 89.0393C95.0683 89.3301 95.3004 89.559 95.585 89.7261C95.8758 89.8869 96.2223 89.9674 96.6245 89.9674C97.0205 89.9674 97.3608 89.8869 97.6454 89.7261C97.93 89.559 98.162 89.3301 98.3415 89.0393C98.5271 88.7485 98.6632 88.4113 98.7498 88.0276C98.8365 87.644 98.8798 87.2326 98.8798 86.7933V86.5983C98.8798 86.1652 98.8365 85.76 98.7498 85.3825C98.6632 84.9989 98.5271 84.6617 98.3415 84.3709C98.162 84.0739 97.9269 83.8419 97.6361 83.6748C97.3515 83.5016 97.0081 83.4149 96.6059 83.4149C96.2099 83.4149 95.8696 83.5016 95.585 83.6748C95.3004 83.8419 95.0683 84.0739 94.8889 84.3709C94.7095 84.6617 94.5765 84.9989 94.4898 85.3825C94.4032 85.76 94.3599 86.1652 94.3599 86.5983ZM105.516 83.814V91.7122H103.066V81.6701H105.367L105.516 83.814ZM105.126 86.3292H104.402C104.408 85.5991 104.507 84.937 104.699 84.343C104.891 83.7491 105.16 83.2386 105.506 82.8117C105.859 82.3847 106.277 82.0568 106.759 81.8279C107.242 81.5989 107.78 81.4845 108.374 81.4845C108.857 81.4845 109.293 81.5525 109.683 81.6887C110.073 81.8248 110.407 82.0413 110.685 82.3383C110.97 82.6353 111.186 83.0251 111.335 83.5078C111.49 83.9842 111.567 84.572 111.567 85.2712V91.7122H109.098V85.2526C109.098 84.7947 109.03 84.4328 108.894 84.1667C108.764 83.9007 108.572 83.7119 108.319 83.6006C108.071 83.4892 107.765 83.4335 107.4 83.4335C107.022 83.4335 106.691 83.5108 106.407 83.6655C106.128 83.814 105.893 84.0213 105.701 84.2874C105.516 84.5534 105.373 84.8597 105.274 85.2062C105.175 85.5527 105.126 85.927 105.126 86.3292ZM118.481 81.6701V83.4335H112.727V81.6701H118.481ZM114.268 79.2013H116.727V88.8165C116.727 89.1135 116.767 89.3425 116.848 89.5033C116.928 89.6642 117.049 89.7725 117.21 89.8282C117.371 89.8838 117.563 89.9117 117.785 89.9117C117.946 89.9117 118.095 89.9024 118.231 89.8838C118.367 89.8653 118.481 89.8467 118.574 89.8282L118.583 91.6658C118.379 91.7339 118.147 91.7896 117.887 91.8329C117.634 91.8762 117.346 91.8978 117.024 91.8978C116.474 91.8978 115.991 91.805 115.576 91.6194C115.162 91.4276 114.84 91.1213 114.611 90.7006C114.382 90.2737 114.268 89.7106 114.268 89.0114V79.2013ZM122.519 77.4565V91.7122H120.059V77.4565H122.519ZM122.129 86.3292H121.405C121.405 85.63 121.498 84.9865 121.683 84.3987C121.869 83.8109 122.132 83.3005 122.472 82.8674C122.813 82.4281 123.218 82.0877 123.688 81.8464C124.165 81.6051 124.69 81.4845 125.266 81.4845C125.761 81.4845 126.209 81.5556 126.612 81.6979C127.02 81.8341 127.37 82.0537 127.66 82.3569C127.951 82.6601 128.174 83.0561 128.329 83.5449C128.489 84.0275 128.57 84.6153 128.57 85.3083V91.7122H126.101V85.2897C126.101 84.8257 126.033 84.4606 125.897 84.1946C125.761 83.9223 125.566 83.7274 125.312 83.6098C125.065 83.4923 124.758 83.4335 124.393 83.4335C123.997 83.4335 123.657 83.5108 123.373 83.6655C123.088 83.814 122.853 84.0213 122.667 84.2874C122.488 84.5534 122.352 84.8597 122.259 85.2062C122.172 85.5527 122.129 85.927 122.129 86.3292ZM140.988 88.965C140.988 88.7547 140.932 88.5659 140.821 88.3989C140.71 88.2318 140.499 88.0802 140.19 87.9441C139.887 87.8018 139.441 87.6688 138.853 87.545C138.334 87.4336 137.854 87.2944 137.415 87.1274C136.975 86.9603 136.598 86.7592 136.282 86.5241C135.967 86.2828 135.719 86.0013 135.54 85.6795C135.367 85.3516 135.28 84.9742 135.28 84.5472C135.28 84.1327 135.37 83.7429 135.549 83.3778C135.729 83.0066 135.989 82.6817 136.329 82.4033C136.669 82.1187 137.084 81.8959 137.573 81.7351C138.061 81.568 138.612 81.4845 139.225 81.4845C140.078 81.4845 140.812 81.6237 141.424 81.9021C142.043 82.1806 142.516 82.5642 142.844 83.053C143.172 83.5356 143.336 84.0801 143.336 84.6864H140.886C140.886 84.4204 140.824 84.1791 140.7 83.9625C140.583 83.746 140.4 83.5727 140.153 83.4428C139.905 83.3067 139.593 83.2386 139.215 83.2386C138.875 83.2386 138.587 83.2943 138.352 83.4057C138.123 83.517 137.95 83.6624 137.832 83.8419C137.715 84.0213 137.656 84.2193 137.656 84.4359C137.656 84.5967 137.687 84.7421 137.749 84.8721C137.817 84.9958 137.925 85.1103 138.074 85.2155C138.222 85.3207 138.423 85.4166 138.677 85.5032C138.937 85.5898 139.256 85.6733 139.633 85.7538C140.382 85.9023 141.034 86.1003 141.591 86.3478C142.154 86.5891 142.594 86.9108 142.909 87.313C143.225 87.7152 143.383 88.2287 143.383 88.8536C143.383 89.2991 143.287 89.7075 143.095 90.0788C142.903 90.4438 142.625 90.7625 142.26 91.0347C141.894 91.3069 141.458 91.5204 140.951 91.6751C140.444 91.8236 139.871 91.8978 139.234 91.8978C138.312 91.8978 137.532 91.7339 136.895 91.4059C136.258 91.0718 135.775 90.6511 135.447 90.1437C135.119 89.6302 134.955 89.0981 134.955 88.5474H137.303C137.322 88.9372 137.427 89.2496 137.619 89.4848C137.811 89.7199 138.052 89.89 138.343 89.9952C138.64 90.0942 138.952 90.1437 139.28 90.1437C139.652 90.1437 139.964 90.0942 140.218 89.9952C140.471 89.89 140.663 89.7508 140.793 89.5776C140.923 89.3981 140.988 89.194 140.988 88.965ZM151.225 89.327V81.6701H153.694V91.7122H151.374L151.225 89.327ZM151.541 87.248L152.302 87.2295C152.302 87.9039 152.227 88.5257 152.079 89.095C151.93 89.6642 151.698 90.1592 151.383 90.5799C151.073 90.9945 150.681 91.3193 150.204 91.5544C149.728 91.7834 149.165 91.8978 148.515 91.8978C148.02 91.8978 147.568 91.8298 147.16 91.6937C146.752 91.5513 146.399 91.3317 146.102 91.0347C145.811 90.7315 145.585 90.3448 145.424 89.8746C145.263 89.3981 145.183 88.8258 145.183 88.1576V81.6701H147.633V88.1761C147.633 88.5102 147.67 88.7887 147.745 89.0114C147.825 89.2342 147.933 89.4167 148.069 89.559C148.212 89.6951 148.376 89.7941 148.561 89.856C148.753 89.9117 148.957 89.9395 149.174 89.9395C149.768 89.9395 150.235 89.822 150.575 89.5869C150.922 89.3455 151.169 89.0238 151.318 88.6216C151.466 88.2133 151.541 87.7554 151.541 87.248ZM158.316 83.6006V95.5731H155.856V81.6701H158.13L158.316 83.6006ZM164.766 86.5891V86.784C164.766 87.5141 164.679 88.1916 164.506 88.8165C164.339 89.4353 164.092 89.9767 163.764 90.4407C163.436 90.8986 163.027 91.2574 162.539 91.5173C162.056 91.771 161.499 91.8978 160.868 91.8978C160.249 91.8978 159.711 91.7803 159.253 91.5452C158.795 91.3039 158.409 90.9635 158.093 90.5242C157.777 90.0849 157.524 89.5745 157.332 88.9929C157.146 88.4051 157.007 87.7647 156.914 87.0717V86.4499C157.007 85.7136 157.146 85.0453 157.332 84.4451C157.524 83.8388 157.777 83.3159 158.093 82.8766C158.409 82.4311 158.792 82.0877 159.244 81.8464C159.702 81.6051 160.237 81.4845 160.849 81.4845C161.487 81.4845 162.047 81.6051 162.529 81.8464C163.018 82.0877 163.43 82.4342 163.764 82.8859C164.098 83.3376 164.348 83.8759 164.516 84.5008C164.683 85.1258 164.766 85.8218 164.766 86.5891ZM162.307 86.784V86.5891C162.307 86.1436 162.266 85.7321 162.186 85.3547C162.106 84.9711 161.982 84.6369 161.815 84.3523C161.648 84.0615 161.431 83.8357 161.165 83.6748C160.899 83.5139 160.577 83.4335 160.2 83.4335C159.822 83.4335 159.498 83.4954 159.225 83.6191C158.953 83.7429 158.73 83.9192 158.557 84.1481C158.384 84.3771 158.248 84.6493 158.149 84.9649C158.056 85.2742 157.994 85.6176 157.963 85.9951V87.5357C158.019 87.9936 158.127 88.4051 158.288 88.7701C158.449 89.1352 158.684 89.426 158.993 89.6425C159.309 89.8591 159.717 89.9674 160.218 89.9674C160.596 89.9674 160.918 89.8838 161.184 89.7168C161.45 89.5497 161.666 89.3208 161.833 89.03C162 88.733 162.121 88.3927 162.195 88.0091C162.269 87.6255 162.307 87.2171 162.307 86.784ZM169.008 83.6006V95.5731H166.548V81.6701H168.822L169.008 83.6006ZM175.458 86.5891V86.784C175.458 87.5141 175.371 88.1916 175.198 88.8165C175.031 89.4353 174.783 89.9767 174.456 90.4407C174.128 90.8986 173.719 91.2574 173.23 91.5173C172.748 91.771 172.191 91.8978 171.56 91.8978C170.941 91.8978 170.403 91.7803 169.945 91.5452C169.487 91.3039 169.1 90.9635 168.785 90.5242C168.469 90.0849 168.216 89.5745 168.024 88.9929C167.838 88.4051 167.699 87.7647 167.606 87.0717V86.4499C167.699 85.7136 167.838 85.0453 168.024 84.4451C168.216 83.8388 168.469 83.3159 168.785 82.8766C169.1 82.4311 169.484 82.0877 169.936 81.8464C170.394 81.6051 170.929 81.4845 171.541 81.4845C172.179 81.4845 172.739 81.6051 173.221 81.8464C173.71 82.0877 174.121 82.4342 174.456 82.8859C174.79 83.3376 175.04 83.8759 175.207 84.5008C175.374 85.1258 175.458 85.8218 175.458 86.5891ZM172.998 86.784V86.5891C172.998 86.1436 172.958 85.7321 172.878 85.3547C172.797 84.9711 172.674 84.6369 172.507 84.3523C172.339 84.0615 172.123 83.8357 171.857 83.6748C171.591 83.5139 171.269 83.4335 170.892 83.4335C170.514 83.4335 170.189 83.4954 169.917 83.6191C169.645 83.7429 169.422 83.9192 169.249 84.1481C169.076 84.3771 168.939 84.6493 168.84 84.9649C168.748 85.2742 168.686 85.6176 168.655 85.9951V87.5357C168.711 87.9936 168.819 88.4051 168.98 88.7701C169.141 89.1352 169.376 89.426 169.685 89.6425C170.001 89.8591 170.409 89.9674 170.91 89.9674C171.288 89.9674 171.609 89.8838 171.875 89.7168C172.141 89.5497 172.358 89.3208 172.525 89.03C172.692 88.733 172.813 88.3927 172.887 88.0091C172.961 87.6255 172.998 87.2171 172.998 86.784ZM179.848 77.4565V91.7122H177.388V77.4565H179.848ZM185.129 90.5985L187.82 81.6701H190.447L186.419 93.2343C186.326 93.4818 186.205 93.751 186.057 94.0418C185.915 94.3326 185.723 94.6079 185.481 94.8678C185.24 95.1338 184.937 95.3504 184.572 95.5175C184.213 95.6845 183.777 95.768 183.263 95.768C183.041 95.768 182.843 95.7526 182.669 95.7216C182.496 95.6907 182.314 95.6505 182.122 95.601V93.7633C182.184 93.7695 182.255 93.7726 182.335 93.7726C182.422 93.7788 182.496 93.7819 182.558 93.7819C182.917 93.7819 183.214 93.7386 183.449 93.652C183.684 93.5715 183.873 93.4385 184.015 93.2529C184.164 93.0734 184.287 92.8383 184.386 92.5475L185.129 90.5985ZM183.802 81.6701L186.075 89.0671L186.475 91.6565L184.785 91.9628L181.156 81.6701H183.802Z" fill="#184CA1"/>
<circle cx="285.223" cy="75.7122" r="6.65267" stroke="#0657DC" stroke-width="0.633588"/>
<circle cx="285.223" cy="75.7122" r="4.11832" fill="#0657DC" stroke="#0657DC" stroke-width="0.633588"/>
<rect x="28.2887" y="43.7924" width="294.634" height="63.8397" rx="20.3168" stroke="#0657DC" stroke-width="0.633588"/>
</g>
<defs>
<clipPath id="clip0_526_2932">
<rect x="17" y="16" width="317.245" height="688.154" rx="52.5558" fill="white"/>
</clipPath>
</defs>
</svg>
